<svg width="61" height="60" viewBox="0 0 61 60" fill="none" xmlns="http://www.w3.org/2000/svg">
<path d="M33.2796 34.8387L28.3671 34.2561C30.0611 32.9061 31.3651 31.0897 32.096 29.0013C34.6096 28.8426 36.6118 26.7581 36.6118 24.1935V18.1181C37.1848 17.7823 37.5749 17.1648 37.5749 16.4516V14.5161C37.5749 13.6926 37.0577 12.9929 36.3354 12.7132C35.147 6.57097 30.0726 1.83 23.8869 1.08387C23.572 0.444194 22.9229 0 22.1659 0H20.2398C19.4828 0 18.8337 0.444194 18.5188 1.08387C12.3331 1.83 7.25869 6.57097 6.07028 12.7132C5.34798 12.9929 4.83082 13.6926 4.83082 14.5161V16.4516C4.83082 17.1648 5.22086 17.7823 5.79388 18.1181V24.1935C5.79388 26.7581 7.79608 28.8426 10.3097 29.0023C11.0416 31.0906 12.3446 32.9071 14.0386 34.2571L8.63105 34.8977C4.26839 35.4145 0.978577 39.1335 0.978577 43.5474V57.0968C0.978577 58.6974 2.27486 60 3.86776 60H16.3875H17.3506H40.4641H41.4271H60.6883V34.8387H33.2796ZM28.5606 39.0126C28.4451 39.4123 28.2159 39.7539 27.9038 40.0094C27.926 39.8681 27.9443 39.7258 27.9443 39.5806C27.9443 38.6681 27.5224 37.8377 26.7847 37.3045C26.5074 37.1032 26.2002 36.9774 25.8852 36.8903C25.9575 36.5748 26.0018 36.2535 26.0104 35.9265L27.5822 36.1123L28.3545 37.4061C28.6463 37.8948 28.7195 38.4658 28.5606 39.0126ZM24.4618 38.9835C24.5543 38.8945 24.667 38.8258 24.7854 38.7861L24.8798 38.7552C24.9703 38.7252 25.0638 38.7097 25.1552 38.7097C25.3334 38.7097 25.5077 38.7658 25.658 38.8742C25.8872 39.0406 26.0181 39.2981 26.0181 39.5806C26.0181 39.6919 25.9979 39.8003 25.9565 39.9029L23.101 47.0758C22.7216 48.0281 21.8182 48.6435 20.7964 48.6435C19.427 48.6445 18.3137 47.5248 18.3137 46.1497V45.9784C18.3137 45.3029 18.592 44.6468 19.0764 44.1784L24.4618 38.9835ZM21.2028 38.7097C19.8151 38.7097 18.6546 37.7216 18.3782 36.4084C19.2835 36.6387 20.2273 36.7742 21.2028 36.7742C22.1765 36.7742 23.1184 36.6397 24.0227 36.4103C23.9688 36.6668 23.8811 36.9126 23.7598 37.1448C23.5315 37.2668 23.3139 37.4081 23.128 37.5881L22.1389 38.5423C21.8375 38.6458 21.5255 38.7097 21.2028 38.7097ZM32.6055 26.9671C32.6979 26.3768 32.7596 25.7768 32.7596 25.1613V21.4684C33.8777 21.869 34.6857 22.9335 34.6857 24.1935C34.6857 25.5106 33.8035 26.6129 32.6055 26.9671ZM34.6857 20.3477C34.1233 19.92 33.4751 19.5997 32.7596 19.4535V18.3871H34.6857V20.3477ZM20.2398 1.93548H22.1659V8.70968H20.2398V1.93548ZM18.3137 3.05419V8.70968C18.3137 9.7771 19.1775 10.6452 20.2398 10.6452H22.1659C23.2282 10.6452 24.092 9.7771 24.092 8.70968V3.05419C25.1061 3.2129 26.0807 3.50129 27.0034 3.89323L24.3434 12.5806H18.0623L15.4023 3.89323C16.3249 3.50032 17.2996 3.2129 18.3137 3.05419ZM13.665 4.80097L16.0466 12.5806H8.05707C8.83137 9.30097 10.901 6.52742 13.665 4.80097ZM7.72 24.1935C7.72 22.9335 8.52801 21.869 9.64612 21.4684V25.1613C9.64612 25.7768 9.70776 26.3768 9.80021 26.9671C8.60216 26.6129 7.72 25.5106 7.72 24.1935ZM7.72 20.3468V18.3871H9.64612V19.4526C8.93057 19.5997 8.28243 19.919 7.72 20.3468ZM6.75694 16.4516V14.5161H30.8334V12.5806H26.3591L28.7417 4.80097C31.5047 6.52839 33.5743 9.30097 34.3486 12.5806H32.7596V14.5161H35.6488V16.4516H6.75694ZM11.5722 25.1613V18.3871H30.8334V25.1613C30.8334 30.4974 26.5132 34.8387 21.2028 34.8387C15.8925 34.8387 11.5722 30.4974 11.5722 25.1613ZM14.0512 37.4061L14.8235 36.1123L16.3991 35.9255C16.454 38.1571 18.0161 40.0113 20.1021 40.5058L19.0649 41.5065C18.5092 41.7658 17.8822 41.7668 17.3265 41.4871L14.8765 40.2561C14.3699 40.0016 14.003 39.5603 13.8451 39.0126C13.6862 38.4658 13.7594 37.8948 14.0512 37.4061ZM2.9047 43.5474C2.9047 40.1139 5.46355 37.2213 8.85737 36.8197L12.4072 36.3987L12.4005 36.4103C11.838 37.3529 11.6907 38.4987 11.996 39.5535C12.3022 40.6084 13.038 41.4948 14.0165 41.9865L16.4665 43.2174C16.6919 43.3306 16.9278 43.4052 17.1638 43.4729C16.6639 44.2065 16.3875 45.0823 16.3875 45.9784V46.1497C16.3875 47.5548 17.0549 48.7955 18.0739 49.6074L16.7554 52.2581H8.68306V44.5161H6.75694V47.4194H2.9047V43.5474ZM17.3506 58.0645H16.3875H3.86776C3.33615 58.0645 2.9047 57.63 2.9047 57.0968V49.3548H6.75694V54.1935H17.3506C18.4129 54.1935 19.2767 55.0616 19.2767 56.129C19.2767 57.1964 18.4129 58.0645 17.3506 58.0645ZM39.501 58.0645H35.6488V50.3226H39.501V58.0645ZM39.501 48.3871H35.6488V44.5161H33.7226V58.0645H20.6674C20.9987 57.4926 21.2028 56.8374 21.2028 56.129C21.2028 54.4994 20.1926 53.1077 18.7702 52.5377L19.8054 50.4571C20.1252 50.5316 20.4545 50.58 20.7964 50.58C22.6099 50.58 24.2163 49.4874 24.8894 47.7958L26.9042 42.7345L28.3892 41.9884C29.3677 41.4968 30.1025 40.6103 30.4097 39.5555C30.715 38.5006 30.5676 37.3548 30.0052 36.4113L29.9985 36.3997L33.5483 36.8206C36.9421 37.2213 39.501 40.1139 39.501 43.5474V48.3871ZM38.2018 36.7742H52.0208V40.6452H43.3532V42.5806H45.2794V46.4516H41.4271V43.5474C41.4271 40.831 40.178 38.3806 38.2018 36.7742ZM52.0208 48.3871V52.2581H41.4271V48.3871H52.0208ZM45.2794 58.0645H41.4271V54.1935H45.2794V58.0645ZM58.7622 58.0645H47.2055V54.1935H56.8361V52.2581H53.9469V48.3871H58.7622V58.0645ZM58.7622 46.4516H47.2055V42.5806H58.7622V46.4516ZM58.7622 40.6452H53.9469V36.7742H58.7622V40.6452Z" fill="#000D30"/>
</svg>
