<svg width="61" height="60" viewBox="0 0 61 60" fill="none" xmlns="http://www.w3.org/2000/svg">
<path d="M39.1569 1.875H5.57017C4.82785 1.875 4.11594 2.17132 3.59105 2.69876C3.06615 3.22621 2.77127 3.94158 2.77127 4.6875V27.1875C2.77127 27.9334 3.06615 28.6488 3.59105 29.1762C4.11594 29.7037 4.82785 30 5.57017 30H18.9881L16.1892 35.625H15.8328C15.0905 35.625 14.3786 35.9213 13.8537 36.4488C13.3288 36.9762 13.0339 37.6916 13.0339 38.4375C13.0339 39.1834 13.3288 39.8988 13.8537 40.4262C14.3786 40.9537 15.0905 41.25 15.8328 41.25H28.8943C29.6366 41.25 30.3485 40.9537 30.8734 40.4262C31.3983 39.8988 31.6932 39.1834 31.6932 38.4375C31.6932 37.6916 31.3983 36.9762 30.8734 36.4488C30.3485 35.9213 29.6366 35.625 28.8943 35.625H28.5379L25.739 30H39.1569C39.8992 30 40.6111 29.7037 41.136 29.1762C41.6609 28.6488 41.9558 27.9334 41.9558 27.1875V4.6875C41.9558 3.94158 41.6609 3.22621 41.136 2.69876C40.6111 2.17132 39.8992 1.875 39.1569 1.875ZM29.8272 38.4375C29.8272 38.6861 29.729 38.9246 29.554 39.1004C29.379 39.2762 29.1417 39.375 28.8943 39.375H15.8328C15.5853 39.375 15.348 39.2762 15.1731 39.1004C14.9981 38.9246 14.8998 38.6861 14.8998 38.4375C14.8998 38.1889 14.9981 37.9504 15.1731 37.7746C15.348 37.5988 15.5853 37.5 15.8328 37.5H28.8943C29.1417 37.5 29.379 37.5988 29.554 37.7746C29.729 37.9504 29.8272 38.1889 29.8272 38.4375ZM26.4518 35.625H18.2753L21.0742 30H23.6529L26.4518 35.625ZM40.0899 27.1875C40.0899 27.4361 39.9916 27.6746 39.8166 27.8504C39.6416 28.0262 39.4043 28.125 39.1569 28.125H5.57017C5.32273 28.125 5.08542 28.0262 4.91046 27.8504C4.73549 27.6746 4.6372 27.4361 4.6372 27.1875V4.6875C4.6372 4.43886 4.73549 4.2004 4.91046 4.02459C5.08542 3.84877 5.32273 3.75 5.57017 3.75H39.1569C39.4043 3.75 39.6416 3.84877 39.8166 4.02459C39.9916 4.2004 40.0899 4.43886 40.0899 4.6875V27.1875Z" fill="#000D30"/>
<path d="M37.291 5.625H34.4921V7.5H36.358V9.375H38.2239V6.5625C38.2239 6.31386 38.1256 6.0754 37.9507 5.89959C37.7757 5.72377 37.5384 5.625 37.291 5.625Z" fill="#000D30"/>
<path d="M36.358 10.3125H38.2239V12.1875H36.358V10.3125Z" fill="#000D30"/>
<path d="M40.0899 43.125H4.63719C4.38975 43.125 4.15245 43.2238 3.97748 43.3996C3.80252 43.5754 3.70422 43.8139 3.70422 44.0625V57.1875C3.70422 57.4361 3.80252 57.6746 3.97748 57.8504C4.15245 58.0262 4.38975 58.125 4.63719 58.125H40.0899C40.3373 58.125 40.5746 58.0262 40.7496 57.8504C40.9245 57.6746 41.0228 57.4361 41.0228 57.1875V44.0625C41.0228 43.8139 40.9245 43.5754 40.7496 43.3996C40.5746 43.2238 40.3373 43.125 40.0899 43.125ZM39.1569 56.25H5.57015V45H39.1569V56.25Z" fill="#000D30"/>
<path d="M57.8162 1.875H44.7547C44.5072 1.875 44.2699 1.97377 44.095 2.14959C43.92 2.3254 43.8217 2.56386 43.8217 2.8125V40.3125C43.8217 40.5611 43.92 40.7996 44.095 40.9754C44.2699 41.1512 44.5072 41.25 44.7547 41.25H57.8162C58.0636 41.25 58.3009 41.1512 58.4759 40.9754C58.6509 40.7996 58.7492 40.5611 58.7492 40.3125V2.8125C58.7492 2.56386 58.6509 2.3254 58.4759 2.14959C58.3009 1.97377 58.0636 1.875 57.8162 1.875ZM56.8832 39.375H45.6876V3.75H56.8832V39.375Z" fill="#000D30"/>
<path d="M55.9502 46.875H52.2184C51.4761 46.875 50.7642 47.1713 50.2393 47.6988C49.7144 48.2262 49.4195 48.9416 49.4195 49.6875V55.3125C49.4195 56.0584 49.7144 56.7738 50.2393 57.3012C50.7642 57.8287 51.4761 58.125 52.2184 58.125H55.9502C56.6926 58.125 57.4045 57.8287 57.9294 57.3012C58.4543 56.7738 58.7491 56.0584 58.7491 55.3125V49.6875C58.7491 48.9416 58.4543 48.2262 57.9294 47.6988C57.4045 47.1713 56.6926 46.875 55.9502 46.875ZM56.8832 49.6875V50.625H55.0173V48.75H55.9502C56.1977 48.75 56.435 48.8488 56.61 49.0246C56.7849 49.2004 56.8832 49.4389 56.8832 49.6875ZM52.2184 48.75H53.1514V50.625H51.2854V49.6875C51.2854 49.4389 51.3837 49.2004 51.5587 49.0246C51.7336 48.8488 51.971 48.75 52.2184 48.75ZM55.9502 56.25H52.2184C51.971 56.25 51.7336 56.1512 51.5587 55.9754C51.3837 55.7996 51.2854 55.5611 51.2854 55.3125V52.5H56.8832V55.3125C56.8832 55.5611 56.7849 55.7996 56.61 55.9754C56.435 56.1512 56.1977 56.25 55.9502 56.25Z" fill="#000D30"/>
<path d="M7.4361 46.875H11.168V48.75H7.4361V46.875Z" fill="#000D30"/>
<path d="M7.4361 52.5H11.168V54.375H7.4361V52.5Z" fill="#000D30"/>
<path d="M13.0339 46.875H16.7657V48.75H13.0339V46.875Z" fill="#000D30"/>
<path d="M13.0339 52.5H16.7657V54.375H13.0339V52.5Z" fill="#000D30"/>
<path d="M18.6317 46.875H22.3635V48.75H18.6317V46.875Z" fill="#000D30"/>
<path d="M18.6317 52.5H22.3635V54.375H18.6317V52.5Z" fill="#000D30"/>
<path d="M24.2295 46.875H27.9613V48.75H24.2295V46.875Z" fill="#000D30"/>
<path d="M24.2295 52.5H27.9613V54.375H24.2295V52.5Z" fill="#000D30"/>
<path d="M30.7602 54.375H36.358C36.6054 54.375 36.8427 54.2762 37.0177 54.1004C37.1927 53.9246 37.291 53.6861 37.291 53.4375V47.8125C37.291 47.5639 37.1927 47.3254 37.0177 47.1496C36.8427 46.9738 36.6054 46.875 36.358 46.875H30.7602C30.5128 46.875 30.2755 46.9738 30.1005 47.1496C29.9255 47.3254 29.8272 47.5639 29.8272 47.8125V53.4375C29.8272 53.6861 29.9255 53.9246 30.1005 54.1004C30.2755 54.2762 30.5128 54.375 30.7602 54.375ZM31.6932 48.75H35.425V52.5H31.6932V48.75Z" fill="#000D30"/>
<path d="M48.4865 11.25H54.0843C54.3318 11.25 54.5691 11.1512 54.744 10.9754C54.919 10.7996 55.0173 10.5611 55.0173 10.3125V6.5625C55.0173 6.31386 54.919 6.0754 54.744 5.89959C54.5691 5.72377 54.3318 5.625 54.0843 5.625H48.4865C48.2391 5.625 48.0018 5.72377 47.8268 5.89959C47.6519 6.0754 47.5536 6.31386 47.5536 6.5625V10.3125C47.5536 10.5611 47.6519 10.7996 47.8268 10.9754C48.0018 11.1512 48.2391 11.25 48.4865 11.25ZM49.4195 7.5H53.1514V9.375H49.4195V7.5Z" fill="#000D30"/>
<path d="M48.4865 18.75H54.0843C54.3318 18.75 54.5691 18.6512 54.744 18.4754C54.919 18.2996 55.0173 18.0611 55.0173 17.8125V14.0625C55.0173 13.8139 54.919 13.5754 54.744 13.3996C54.5691 13.2238 54.3318 13.125 54.0843 13.125H48.4865C48.2391 13.125 48.0018 13.2238 47.8268 13.3996C47.6519 13.5754 47.5536 13.8139 47.5536 14.0625V17.8125C47.5536 18.0611 47.6519 18.2996 47.8268 18.4754C48.0018 18.6512 48.2391 18.75 48.4865 18.75ZM49.4195 15H53.1514V16.875H49.4195V15Z" fill="#000D30"/>
<path d="M51.2854 29.0625C52.0235 29.0625 52.7451 28.8426 53.3588 28.4305C53.9725 28.0185 54.4508 27.4328 54.7332 26.7476C55.0157 26.0623 55.0896 25.3083 54.9456 24.5809C54.8016 23.8535 54.4462 23.1853 53.9243 22.6609C53.4024 22.1364 52.7374 21.7793 52.0135 21.6346C51.2896 21.4899 50.5392 21.5641 49.8573 21.848C49.1754 22.1318 48.5926 22.6124 48.1825 23.2291C47.7724 23.8458 47.5536 24.5708 47.5536 25.3125C47.5536 26.3071 47.9468 27.2609 48.6466 27.9642C49.3465 28.6674 50.2957 29.0625 51.2854 29.0625ZM51.2854 23.4375C51.6545 23.4375 52.0152 23.5475 52.3221 23.7535C52.6289 23.9595 52.8681 24.2524 53.0093 24.595C53.1506 24.9376 53.1875 25.3146 53.1155 25.6783C53.0435 26.042 52.8658 26.3761 52.6049 26.6383C52.3439 26.9006 52.0114 27.0791 51.6495 27.1515C51.2875 27.2238 50.9123 27.1867 50.5714 27.0448C50.2304 26.9029 49.939 26.6625 49.734 26.3542C49.5289 26.0459 49.4195 25.6833 49.4195 25.3125C49.4195 24.8152 49.6161 24.3383 49.966 23.9867C50.316 23.635 50.7906 23.4375 51.2854 23.4375Z" fill="#000D30"/>
<path d="M47.5536 35.625H55.0173V37.5H47.5536V35.625Z" fill="#000D30"/>
<path d="M47.5536 31.875H55.0173V33.75H47.5536V31.875Z" fill="#000D30"/>
</svg>
