<svg width="61" height="60" viewBox="0 0 61 60" fill="none" xmlns="http://www.w3.org/2000/svg">
<path d="M52.8461 5.12809C48.1907 3.9968 43.5015 6.35519 41.64 10.6452H38.9039C37.8416 10.6452 36.9778 11.5133 36.9778 12.5807V14.5162C36.9778 15.5836 37.8416 16.4516 38.9039 16.4516H40.2233C39.6272 17.851 38.9039 20.1736 38.9039 23.2258V24.1936H40.9273C41.3751 26.3991 43.3195 28.0645 45.6453 28.0645V32.1968C44.7198 32.7039 43.8598 33.3291 43.1115 34.081C42.9738 34.2194 42.8505 34.3694 42.7205 34.5136L33.1255 31.7584V21.2903H25.7909L23.6664 19.1555L20.1965 21.6426L19.4953 17.4194H14.0126L13.3106 21.6436L9.84066 19.1565L7.69689 21.3107C3.62989 21.5158 0.381483 24.8962 0.381483 29.0323V52.2581C0.381483 56.5268 3.83791 60 8.08597 60H35.0517V52.2581H39.867V60H56.239V39.6774V38.7097C56.239 36.2013 55.3193 32.7716 53.3007 30.5545L52.9704 28.2349L54.2069 27.4587C57.8916 25.1429 60.0912 21.1549 60.0912 16.7894V14.6265C60.0912 10.0694 57.1115 6.16261 52.8461 5.12809ZM52.3944 7.00938C55.7035 7.81261 58.1112 10.9587 58.1603 14.5162H52.3867V12.5807C52.3867 11.5133 51.5229 10.6452 50.4606 10.6452H43.7866C45.4739 7.70906 48.9409 6.17228 52.3944 7.00938ZM38.9039 12.5807H50.4606V14.5162H38.9039V12.5807ZM47.5714 28.0645H49.4976V26.1291H45.6453C44.0524 26.1291 42.7561 24.8265 42.7561 23.2258V22.2581H40.8579C41.0255 19.3403 41.9154 17.2965 42.3526 16.4516H50.4606V20.3226H51.4237C51.9553 20.3226 52.3867 20.7571 52.3867 21.2903C52.3867 21.6562 52.2461 21.9997 51.988 22.2581L50.4028 23.851L51.3149 30.2691L47.9008 31.2494C47.7881 31.2813 47.6832 31.3316 47.5714 31.3674V28.0645ZM48.4295 33.1103L51.493 32.2307L47.8902 35.2481L47.0851 33.63C47.5194 33.4258 47.9653 33.2439 48.4295 33.1103ZM41.4878 36.1723C40.8483 37.2242 40.387 38.3691 40.127 39.5758L35.0517 38.1184V34.8387H33.1255V33.7713L41.4878 36.1723ZM31.1994 48.3871C31.1994 47.3197 32.0633 46.4516 33.1255 46.4516H35.0517V50.3226H33.1255C32.0633 50.3226 31.1994 49.4545 31.1994 48.3871ZM35.0517 44.5162V40.1313L39.8881 41.52C39.8824 41.6633 39.867 41.8065 39.867 41.9516V44.5162H35.0517ZM27.4233 23.2258H31.1994V34.8387H26.048L25.0695 33.4607L29.2733 32.7552V27.2458L25.0695 26.5403L27.4233 23.2258ZM10.0487 21.6833L13.3992 24.0852L13.9029 23.8568C14.0666 23.7823 14.237 23.7078 14.4075 23.6507L14.9574 23.4668L15.6431 19.3549H17.8649L18.5487 23.4668L19.0986 23.6507C19.27 23.7078 19.4395 23.7823 19.6032 23.8568L20.1069 24.0852L23.4574 21.6833L25.0301 23.2636L22.6397 26.6294L22.8661 27.1355C22.9392 27.2991 23.0144 27.4703 23.0712 27.6426L23.2532 28.1971L27.3462 28.8842V31.1168L23.2532 31.8039L23.0712 32.3584C23.0144 32.5307 22.9392 32.702 22.8661 32.8655L22.6397 33.3716L23.6827 34.8387H16.7535H9.82429L10.8663 33.3716L10.64 32.8655C10.5668 32.702 10.4917 32.5307 10.4349 32.3584L10.2529 31.8039L6.15985 31.1158V28.8833L10.2529 28.1962L10.4349 27.6416C10.4917 27.4694 10.5668 27.2981 10.64 27.1345L10.8663 26.6284L8.47601 23.2626L10.0487 21.6833ZM6.29371 23.521L8.43845 26.5394L4.23372 27.2449V32.7542L8.43748 33.4597L7.48116 34.8058C4.5785 34.502 2.3076 32.0294 2.3076 29.0323C2.3076 26.4649 3.97562 24.2855 6.29371 23.521ZM2.3076 52.2581V34.1362C3.72041 35.7494 5.78425 36.7742 8.08597 36.7742H33.1255V44.5162C31.001 44.5162 29.2733 46.2523 29.2733 48.3871H27.3472V38.7097H19.6427V48.3871H15.7904V58.0645H8.08597C4.8992 58.0645 2.3076 55.4604 2.3076 52.2581ZM25.4211 48.3871H21.5688V40.6452H25.4211V48.3871ZM33.1255 58.0645H17.7166V50.3226H29.8088C30.4771 51.4742 31.706 52.2581 33.1255 52.2581V58.0645ZM54.3129 58.0645H41.7931V52.2581H45.9564C49.1104 52.2581 51.9929 50.6536 53.6638 47.9652C53.8978 47.5887 54.1135 47.221 54.3129 46.86V58.0645ZM54.3129 39.6774C54.3129 42.2633 53.6734 44.2994 52.0314 46.9394C50.7139 49.0578 48.442 50.3226 45.9564 50.3226H36.9778V46.4516H46.0132C46.749 46.4516 47.4087 46.0413 47.7361 45.3823L50.3595 40.111L48.6366 39.2449L46.0132 44.5162H41.7931V41.9516C41.7931 39.4955 42.7446 37.1865 44.4733 35.4494C44.7699 35.1504 45.0906 34.8784 45.4248 34.6249L47.2536 38.3004L53.007 33.482C53.8121 35.01 54.3129 36.9271 54.3129 38.7097V39.6774ZM53.1861 25.8165L52.6728 26.1387L52.4445 24.5362L53.3498 23.6274C53.971 23.0033 54.3129 22.1739 54.3129 21.2903C54.3129 20.0284 53.5077 18.9523 52.3867 18.5526V16.4516H58.1651V16.7894C58.1651 20.4833 56.3035 23.8578 53.1861 25.8165Z" fill="#000D30"/>
<path d="M27.3471 54.1935H29.2732V56.129H27.3471V54.1935Z" fill="#000D30"/>
<path d="M23.495 54.1935H25.4211V56.129H23.495V54.1935Z" fill="#000D30"/>
<path d="M19.6426 54.1935H21.5687V56.129H19.6426V54.1935Z" fill="#000D30"/>
<path d="M8.08597 44.5161H17.7166V46.4516H8.08597V44.5161Z" fill="#000D30"/>
<path d="M8.08597 40.6451H17.7166V42.5806H8.08597V40.6451Z" fill="#000D30"/>
<path d="M8.08597 48.3871H13.8643V50.3226H8.08597V48.3871Z" fill="#000D30"/>
<path d="M8.08597 52.2581H13.8643V54.1935H8.08597V52.2581Z" fill="#000D30"/>
<path d="M15.7905 5.62839V15.4839H17.7166V5.62839C18.8347 5.22774 19.6427 4.16323 19.6427 2.90323C19.6427 1.30258 18.3464 0 16.7535 0C15.1606 0 13.8643 1.30258 13.8643 2.90323C13.8643 4.16323 14.6723 5.22774 15.7905 5.62839ZM16.7535 1.93548C17.2851 1.93548 17.7166 2.37 17.7166 2.90323C17.7166 3.43645 17.2851 3.87097 16.7535 3.87097C16.2219 3.87097 15.7905 3.43645 15.7905 2.90323C15.7905 2.37 16.2219 1.93548 16.7535 1.93548Z" fill="#000D30"/>
<path d="M3.27066 13.5484C4.52457 13.5484 5.58394 12.7365 5.98264 11.6129H11.9382V15.4839H13.8643V9.67743H5.98264C5.58394 8.55388 4.52457 7.74194 3.27066 7.74194C1.67776 7.74194 0.381483 9.04452 0.381483 10.6452C0.381483 12.2458 1.67776 13.5484 3.27066 13.5484ZM3.27066 9.67743C3.80227 9.67743 4.23372 10.1119 4.23372 10.6452C4.23372 11.1784 3.80227 11.6129 3.27066 11.6129C2.73906 11.6129 2.3076 11.1784 2.3076 10.6452C2.3076 10.1119 2.73906 9.67743 3.27066 9.67743Z" fill="#000D30"/>
<path d="M19.6426 5.80646V15.4839H21.5687V7.74194H23.4948V13.5484H29.2732V11.6129H25.421V7.74194H31.3765C31.7752 8.86549 32.8346 9.67742 34.0885 9.67742C35.6814 9.67742 36.9777 8.37484 36.9777 6.7742C36.9777 5.17355 35.6814 3.87097 34.0885 3.87097C32.8346 3.87097 31.7752 4.68291 31.3765 5.80646H25.421V3.87097H23.4948V5.80646H19.6426ZM34.0885 5.80646C34.6201 5.80646 35.0516 6.24097 35.0516 6.7742C35.0516 7.30742 34.6201 7.74194 34.0885 7.74194C33.5569 7.74194 33.1254 7.30742 33.1254 6.7742C33.1254 6.24097 33.5569 5.80646 34.0885 5.80646Z" fill="#000D30"/>
<path d="M13.8643 5.80646H10.0121V3.87097H8.08597V7.74194H13.8643V5.80646Z" fill="#000D30"/>
<path d="M8.08597 0H10.0121V1.93548H8.08597V0Z" fill="#000D30"/>
<path d="M21.5687 30C21.5687 27.332 19.4086 25.1613 16.7534 25.1613C14.0982 25.1613 11.9381 27.332 11.9381 30C11.9381 32.6681 14.0982 34.8387 16.7534 34.8387C19.4086 34.8387 21.5687 32.6681 21.5687 30ZM16.7534 32.9033C15.1605 32.9033 13.8642 31.6007 13.8642 30C13.8642 28.3994 15.1605 27.0968 16.7534 27.0968C18.3463 27.0968 19.6426 28.3994 19.6426 30C19.6426 31.6007 18.3463 32.9033 16.7534 32.9033Z" fill="#000D30"/>
<path d="M23.4949 0H25.4211V1.93548H23.4949V0Z" fill="#000D30"/>
<path d="M31.1994 11.6129H33.1256V13.5484H31.1994V11.6129Z" fill="#000D30"/>
</svg>
